<svg xmlns="http://www.w3.org/2000/svg" viewBox="0 0 1200 630" width="1200" height="630">
  <defs>
    <linearGradient id="bg" x1="0" x2="1" y1="0" y2="1">
      <stop offset="0%" stop-color="#0a0a0a"/>
      <stop offset="100%" stop-color="#070707"/>
    </linearGradient>
  </defs>
  <rect width="1200" height="630" fill="url(#bg)"/>
  <g stroke="#1f1f1f" stroke-width="1" opacity="0.4">
    <path d="M0 100h1200M0 200h1200M0 300h1200M0 400h1200M0 500h1200"/>
    <path d="M100 0v630M200 0v630M300 0v630M400 0v630M500 0v630M600 0v630M700 0v630M800 0v630M900 0v630M1000 0v630M1100 0v630"/>
  </g>
  <g transform="translate(80,160)">
    <text x="0" y="0" font-family="Space Grotesk, Inter, sans-serif" font-size="28" fill="#7cf5b3" letter-spacing="6">NAEEM ABDULLAH SADIK</text>
    <text x="0" y="100" font-family="Space Grotesk, Inter, sans-serif" font-size="92" font-weight="700" fill="#ededed">Software</text>
    <text x="0" y="200" font-family="Space Grotesk, Inter, sans-serif" font-size="92" font-weight="700" fill="#ededed">Engineer<tspan fill="#7cf5b3">.</tspan></text>
    <text x="0" y="280" font-family="Inter, sans-serif" font-size="26" fill="#9a9a9a">CS Student · Next.js · Three.js · Firebase</text>
  </g>
  <g transform="translate(1120,80)" text-anchor="end">
    <text x="0" y="0" font-family="Inter, sans-serif" font-size="14" fill="#7cf5b3" letter-spacing="3" opacity="0.9">PORTFOLIO</text>
  </g>
</svg>
